REM DATE 2014.6.25
REM DISCID C50DCC0D
REM COMMENT ExactAudioCopy v0.99pb5
PERFORMER "Sphere"
TITLE "4 colors for you"
FILE "4 colors for you.flac" WAVE
  TRACK 01 AUDIO
    TITLE "Eternal Tours"
    INDEX 01 00:00:00
  TRACK 02 AUDIO
    TITLE "Sticking Places (TVアニメ「勇者になれなかった俺はしぶしぶ就をQ意しました。」EDテ`マ)"
    INDEX 00 04:03:67
    INDEX 01 04:06:36
  TRACK 03 AUDIO
    TITLE "STAR'S ELEMENT"
    INDEX 00 08:47:37
    INDEX 01 08:50:25
  TRACK 04 AUDIO
    TITLE "GENESIS ARIA (TVアニメ「アラタ カンガタリ ～革神Z～」OPテ`マ)"
    INDEX 00 13:10:28
    INDEX 01 13:10:54
  TRACK 05 AUDIO
    TITLE "郭のoい未来へと"
    INDEX 00 17:50:68
    INDEX 01 17:52:53
  TRACK 06 AUDIO
    TITLE "タイムマシン"
    INDEX 00 22:52:23
    INDEX 01 22:54:42
  TRACK 07 AUDIO
    TITLE "synchronicity"
    INDEX 00 27:28:73
    INDEX 01 27:30:72
  TRACK 08 AUDIO
    TITLE "Jolly Dolly's Music!!!"
    INDEX 00 31:28:03
    INDEX 01 31:30:17
  TRACK 09 AUDIO
    TITLE "ワタシ?NOTE と # ペンシル"
    INDEX 00 34:55:10
    INDEX 01 34:57:02
  TRACK 10 AUDIO
    TITLE "微かな密かな_かなミライ (TVアニメ「ヶ萜摺々の埋i金」EDテ`マ)"
    INDEX 00 39:53:53
    INDEX 01 39:56:38
  TRACK 11 AUDIO
    TITLE "Ding! Dong! Ding! Dong!"
    INDEX 00 44:27:29
    INDEX 01 44:29:23
  TRACK 12 AUDIO
    TITLE "Pride on Everyday"
    INDEX 00 48:59:27
    INDEX 01 49:01:32
  TRACK 13 AUDIO
    TITLE "NEVER ENDING PARTY!!!!"
    INDEX 00 53:51:34
    INDEX 01 53:54:24
